# xmcd CD database file
#
# Track frame offsets:
#	150
#	13792
#	30803
#	48272
#	65887
#	85095
#	104045
#	121441
#	136550
#	155175
#	175637
#	197168
#	222340
#	237968
#
# Disc length: 3491 seconds
#
# Revision: 0
# Processed by: cddbd v1.5.2PL0 Copyright (c) Steve Scherf et al.
# Submitted via: CDex 1.51
#
DISCID=be0da10e
DTITLE=Simone Kopmajer - Emotion
DYEAR=2014
DGENRE=Jazz
TTITLE0=Valentine
TTITLE1=Emotion
TTITLE2=Words
TTITLE3=Go
TTITLE4=Hello
TTITLE5=I Can't Tell You Why
TTITLE6=Change The World
TTITLE7=Sleepwalk
TTITLE8=You're Still The One
TTITLE9=Rolling In The Deep
TTITLE10=Can't Help Falling In Love
TTITLE11=Lately
TTITLE12=You Raise Me Up
TTITLE13=Stairway to Heaven
EXTD=YEAR: 2014
EXTT0=
EXTT1=
EXTT2=
EXTT3=
EXTT4=
EXTT5=
EXTT6=
EXTT7=
EXTT8=
EXTT9=
EXTT10=
EXTT11=
EXTT12=
EXTT13=
PLAYORDER=
